<?xml version="1.0" encoding="UTF-8" standalone="no"?>
<!DOCTYPE svg PUBLIC "-//W3C//DTD SVG 1.1//EN" "http://www.w3.org/Graphics/SVG/1.1/DTD/svg11.dtd">
<svg width="100%" height="100%" viewBox="0 0 16 18" version="1.1" xmlns="http://www.w3.org/2000/svg" xmlns:xlink="http://www.w3.org/1999/xlink" xml:space="preserve" xmlns:serif="http://www.serif.com/" style="fill-rule:evenodd;clip-rule:evenodd;stroke-linejoin:round;stroke-miterlimit:2;">
    <g transform="matrix(1,0,0,1,-4,-3.4075)">
        <path d="M19,8L17.19,8C16.74,7.22 16.12,6.55 15.37,6.04L16.3,5.11C16.69,4.72 16.69,4.09 16.3,3.7C15.91,3.31 15.28,3.31 14.89,3.7L13.42,5.17C12.96,5.06 12.49,5 12,5C11.51,5 11.04,5.06 10.59,5.17L9.11,3.7C8.72,3.31 8.09,3.31 7.7,3.7C7.31,4.09 7.31,4.72 7.7,5.11L8.62,6.04C7.88,6.55 7.26,7.22 6.81,8L5,8C4.45,8 4,8.45 4,9C4,9.55 4.45,10 5,10L6.09,10C6.04,10.33 6,10.66 6,11L6,12L5,12C4.45,12 4,12.45 4,13C4,13.55 4.45,14 5,14L6,14L6,15C6,15.34 6.04,15.67 6.09,16L5,16C4.45,16 4,16.45 4,17C4,17.55 4.45,18 5,18L6.81,18C7.85,19.79 9.78,21 12,21C14.22,21 16.15,19.79 17.19,18L19,18C19.55,18 20,17.55 20,17C20,16.45 19.55,16 19,16L17.91,16C17.96,15.67 18,15.34 18,15L18,14L19,14C19.55,14 20,13.55 20,13C20,12.45 19.55,12 19,12L18,12L18,11C18,10.66 17.96,10.33 17.91,10L19,10C19.55,10 20,9.55 20,9C20,8.45 19.55,8 19,8ZM13,16L11,16C10.45,16 10,15.55 10,15C10,14.45 10.45,14 11,14L13,14C13.55,14 14,14.45 14,15C14,15.55 13.55,16 13,16ZM13,12L11,12C10.45,12 10,11.55 10,11C10,10.45 10.45,10 11,10L13,10C13.55,10 14,10.45 14,11C14,11.55 13.55,12 13,12Z" style="fill-rule:nonzero;"/>
    </g>
    <g id="path4155" transform="matrix(0.55455,0,0,0.55455,9.24147,-576.314)">
        <path id="path4272" d="M4.988,1039.36C4.441,1039.37 4.001,1039.81 4,1040.36L4,1048.36C4,1049.16 4.89,1049.64 5.555,1049.19L11.555,1045.19C12.148,1044.8 12.148,1043.92 11.555,1043.53L5.555,1039.53C5.387,1039.42 5.189,1039.36 4.988,1039.36Z" style="fill:rgb(224,224,224);"/>
    </g>
</svg>
